<?xml version="1.0" encoding="UTF-8"?>
<svg width="151.16" height="75.59" enable-background="new" version="1.1" viewBox="0 0 39.995 20" xmlns="http://www.w3.org/2000/svg">
 <g transform="translate(-.13229 -.13222)" fill="#313851">
  <g transform="matrix(1 0 0 -1 .13229 20.132)" fill="#313851" stroke="#000" stroke-width=".26458">
   <title>b'Sketch'</title>
  </g>
 </g>
 <g transform="translate(-.13229 -.13222)" fill="#586592">
  <g transform="matrix(1 0 0 -1 .13229 20.132)" fill="#586592" stroke="#000" stroke-width=".26458">
   <path d="m0 20h10" fill="#586592" fill-rule="evenodd" stroke="none"/>
   <title>b'Sketch'</title>
  </g>
 </g>
 <g transform="translate(-.13229 -.13222)" fill="#f99947">
  <g transform="matrix(1 0 0 -1 .13229 20.132)" fill="#f99947" stroke="#000" stroke-width=".26458">
   <title>b'Sketch'</title>
  </g>
 </g>
 <g transform="matrix(1.397 0 0 1.397 -7.8596 -2.6162)" fill="#586592">
  <g transform="matrix(.26458 0 0 .26458 20.75 -4.613)" enable-background="new" stroke-width=".97982" style="font-feature-settings:normal;font-variant-caps:normal;font-variant-ligatures:normal;font-variant-numeric:normal">
   <path d="m-8.7876 27.585q0.47554 0 0.76818 0.32922 0.32922 0.32922 0.32922 0.80476v16.461q0 0.43896-0.32922 0.76818t-0.76818 0.32922q-0.51212 0-0.80476-0.32922-0.29263-0.32922-0.29264-0.76818v-4.353l0.62186-0.29265q0 1.0242-0.58528 2.0851-0.5487 1.0608-1.5364 1.9753-0.98766 0.9145-2.3411 1.4998-1.3169 0.5487-2.8898 0.5487-2.4508 0-4.4261-1.2803-1.9388-1.2803-3.0727-3.5117-1.0974-2.2313-1.0974-5.0115 0-2.8532 1.1339-5.0115 1.1339-2.1948 3.0727-3.4385t4.353-1.2437q1.5729 0 2.9264 0.5487 1.3901 0.5487 2.4143 1.4998 1.0242 0.95108 1.6096 2.1948 0.58528 1.2071 0.58528 2.524l-0.76818-0.5487v-4.6456q0-0.47554 0.29264-0.80475 0.29264-0.32922 0.80476-0.32922zm-7.6086 17.01q1.9388 0 3.4385-0.98766 1.4998-1.0242 2.3411-2.78 0.87792-1.7924 0.87792-3.9872 0-2.1582-0.87792-3.8774-0.84134-1.7193-2.3411-2.7435-1.4998-1.0242-3.4385-1.0242-1.9021 0-3.4385 0.98766-1.4998 0.98766-2.3777 2.7069-0.84134 1.7193-0.84134 3.9506 0 2.1948 0.84134 3.9872 0.84134 1.7558 2.3411 2.78 1.5364 0.98766 3.4751 0.98766z"/>
   <path d="m6.9251 27.439q2.4875 0 4.3896 1.2437 1.9388 1.2071 3.0727 3.3654 1.1339 2.1216 1.1339 4.9017 0 2.78-1.1339 4.9383t-3.0727 3.4019q-1.9388 1.2437-4.353 1.2437-1.2803 0-2.4508-0.3658-1.1339-0.40238-2.0851-1.0609-0.95108-0.65844-1.6826-1.5364-0.7316-0.9145-1.1706-1.9753l0.65844-0.47554v11.377q0 0.43896-0.32922 0.76818-0.29264 0.32922-0.76818 0.32922t-0.80476-0.32922q-0.29264-0.32922-0.29264-0.76818v-23.85q0-0.47554 0.29264-0.80476t0.80476-0.32922q0.47554 0 0.76818 0.32922 0.32922 0.32922 0.32922 0.80476v3.9506l-0.51212-0.29264q0.3658-1.1339 1.0609-2.0119 0.7316-0.91449 1.6826-1.5364 0.95108-0.65844 2.0851-0.98766 1.1339-0.32922 2.3777-0.32922zm-0.1829 2.0485q-1.9753 0-3.4751 0.98766-1.4998 0.95108-2.3777 2.6338-0.84134 1.6461-0.84134 3.8409 0 2.1582 0.84134 3.8774 0.87792 1.7193 2.3777 2.7069 1.4998 0.95108 3.4751 0.95108 1.9388 0 3.4019-0.95108 1.4998-0.98766 2.3777-2.7069 0.87792-1.7193 0.87792-3.8774 0-2.1582-0.87792-3.8409-0.87792-1.6826-2.3777-2.6338-1.4632-0.98766-3.4019-0.98766z"/>
   <path d="m28.346 46.643q-2.8167 0-4.9748-1.2071-2.1582-1.2071-3.3654-3.3654-1.2071-2.1582-1.2071-5.048 0-3.1093 1.2071-5.3041 1.2437-2.1948 3.1825-3.3654 1.9753-1.2071 4.1701-1.2071 1.6095 0 3.1093 0.58528 1.5364 0.5487 2.707 1.6826 1.1706 1.0974 1.9021 2.7069 0.7316 1.6096 0.76818 3.7312 0 0.43896-0.32922 0.76818-0.32922 0.29264-0.76818 0.29264h-14.669l-0.43896-1.9753h14.412l-0.47554 0.43896v-0.7316q-0.1829-1.7193-1.1339-2.9264-0.95108-1.2071-2.3045-1.829-1.3169-0.62186-2.78-0.62186-1.0974 0-2.268 0.43896-1.1339 0.43896-2.0851 1.3901-0.9145 0.9145-1.4998 2.3777-0.58528 1.4266-0.58528 3.4019 0 2.1583 0.87792 3.9141t2.524 2.78 3.9872 1.0242q1.2437 0 2.268-0.3658 1.0242-0.3658 1.7924-0.95108 0.80475-0.62186 1.3169-1.2803 0.40238-0.32922 0.76818-0.32922 0.40238 0 0.65844 0.29264 0.29264 0.29264 0.29264 0.65844 0 0.43896-0.3658 0.76818-1.0974 1.3169-2.8532 2.3045-1.7558 0.95108-3.8409 0.95108z"/>
   <path d="m41.501 46.278q-0.51212 0-0.80476-0.32922t-0.29264-0.76818v-16.387q0-0.43896 0.29264-0.76818 0.32922-0.32922 0.80476-0.32922t0.76818 0.32922q0.32922 0.32922 0.32922 0.76818v5.487l-0.5487 0.10974q0.10974-1.2803 0.62186-2.524 0.5487-1.2803 1.4632-2.3411 0.91449-1.0609 2.1582-1.7193 1.2803-0.65844 2.8532-0.65844 0.65844 0 1.2803 0.29264 0.62186 0.25606 0.62186 0.87792 0 0.5487-0.29264 0.84134t-0.69502 0.29264q-0.32922 0-0.7316-0.1829-0.3658-0.1829-0.98766-0.1829-1.0242 0-2.0485 0.62186-1.0242 0.58528-1.8656 1.6096-0.84134 1.0242-1.3534 2.3045-0.47554 1.2437-0.47554 2.524v9.0352q0 0.43896-0.32922 0.76818t-0.76818 0.32922z"/>
  </g>
  <g transform="matrix(.26458 0 0 .26458 20.34 6.8509)" enable-background="new" stroke-width=".96139" style="font-feature-settings:normal;font-variant-caps:normal;font-variant-ligatures:normal;font-variant-numeric:normal">
   <path d="m-33.876 18.019q1.9074 0 3.261 1.0152 1.3536 0.98446 1.8459 2.9534l-0.4307 0.12306 0.18459-0.55376q0.39994-0.92293 1.3229-1.7228 0.9537-0.83064 2.1535-1.3229 1.1998-0.49223 2.4304-0.49223 1.9382 0 3.1072 0.83064 1.1998 0.83064 1.7228 2.2458 0.55376 1.3844 0.55376 3.138v8.7063q0 0.36917-0.27688 0.64605-0.24612 0.27688-0.64605 0.27688-0.39994 0-0.67682-0.27688-0.24612-0.27688-0.24612-0.64605v-8.614q0-1.2613-0.39994-2.3073t-1.2613-1.6613q-0.8614-0.61529-2.3073-0.61529-1.2613 0-2.4304 0.61529-1.1383 0.61529-1.8766 1.6613-0.70758 1.046-0.70758 2.3073v8.614q0 0.36917-0.27688 0.64605-0.24612 0.27688-0.64605 0.27688-0.39994 0-0.67682-0.27688-0.24612-0.27688-0.24612-0.64605v-8.7063q0-1.2613-0.36917-2.2766-0.36917-1.0152-1.1998-1.5998-0.83064-0.61529-2.2458-0.61529-1.2613 0-2.3996 0.61529-1.1075 0.58452-1.8151 1.5998-0.67682 1.0152-0.67682 2.2766v8.7063q0 0.36917-0.27688 0.64605t-0.64605 0.27688q-0.4307 0-0.67682-0.27688t-0.24612-0.64605v-13.782q0-0.36917 0.24612-0.64605 0.27688-0.27688 0.67682-0.27688t0.64605 0.27688q0.27688 0.27688 0.27688 0.64605v2.8611l-0.83064 1.1383q0.0923-0.92293 0.58453-1.8459 0.523-0.92293 1.3536-1.6613 0.83064-0.73835 1.8766-1.169 1.0768-0.46147 2.2458-0.46147z"/>
   <path d="m-0.12362 17.834q0.39994 0 0.64605 0.27688 0.27688 0.27688 0.27688 0.67682v13.844q0 0.36917-0.27688 0.64605t-0.64605 0.27688q-0.4307 0-0.67682-0.27688t-0.24612-0.64605v-3.661l0.523-0.24612q0 0.8614-0.49223 1.7536-0.46147 0.89217-1.2921 1.6613-0.83064 0.76911-1.9689 1.2613-1.1075 0.46147-2.4304 0.46147-2.0612 0-3.7225-1.0768-1.6305-1.0768-2.5842-2.9534-0.92293-1.8766-0.92293-4.2147 0-2.3996 0.9537-4.2147 0.9537-1.8459 2.5842-2.8919t3.661-1.046q1.3229 0 2.4612 0.46147 1.169 0.46147 2.0305 1.2613 0.8614 0.79988 1.3536 1.8459 0.49223 1.0152 0.49223 2.1227l-0.64605-0.46147v-3.9071q0-0.39994 0.24612-0.67682t0.67682-0.27688zm-6.399 14.305q1.6305 0 2.8919-0.83064 1.2613-0.8614 1.9689-2.3381 0.73835-1.5075 0.73835-3.3533 0-1.8151-0.73835-3.261-0.70758-1.4459-1.9689-2.3073-1.2613-0.8614-2.8919-0.8614-1.5998 0-2.8919 0.83064-1.2613 0.83064-1.9997 2.2766-0.70758 1.4459-0.70758 3.3226 0 1.8459 0.70758 3.3533 0.70758 1.4767 1.9689 2.3381 1.2921 0.83064 2.9226 0.83064z"/>
   <path d="m4.6006 18.203h7.1681q0.36917 0 0.61529 0.27688 0.24612 0.24612 0.24612 0.61529 0 0.33841-0.24612 0.58452-0.24612 0.24612-0.61529 0.24612h-7.1681q-0.36917 0-0.64605-0.24612-0.24612-0.27688-0.24612-0.61529 0-0.36917 0.24612-0.61529 0.27688-0.24612 0.64605-0.24612zm3.1687-4.3378q0.39994 0 0.64605 0.27688 0.27688 0.27688 0.27688 0.64605v15.444q0 0.8614 0.21535 1.2921 0.24612 0.4307 0.61529 0.58452 0.36917 0.12306 0.73835 0.12306 0.24612 0 0.4307-0.06153 0.21535-0.09229 0.46147-0.09229 0.27688 0 0.46147 0.21535 0.21535 0.21535 0.21535 0.55376 0 0.4307-0.49223 0.73835-0.49223 0.27688-1.169 0.27688-0.27688 0-0.83064-0.03077-0.55376-0.06153-1.1383-0.33841-0.58452-0.30764-0.98446-1.046-0.36917-0.73835-0.36917-2.1227v-15.536q0-0.36917 0.24612-0.64605 0.27688-0.27688 0.67682-0.27688z"/>
   <path d="m15.056 18.203h7.1681q0.36917 0 0.61529 0.27688 0.24612 0.24612 0.24612 0.61529 0 0.33841-0.24612 0.58452-0.24612 0.24612-0.61529 0.24612h-7.1681q-0.36917 0-0.64605-0.24612-0.24612-0.27688-0.24612-0.61529 0-0.36917 0.24612-0.61529 0.27688-0.24612 0.64605-0.24612zm3.1687-4.3378q0.39994 0 0.64605 0.27688 0.27688 0.27688 0.27688 0.64605v15.444q0 0.8614 0.21535 1.2921 0.24612 0.4307 0.61529 0.58452 0.36917 0.12306 0.73835 0.12306 0.24612 0 0.4307-0.06153 0.21535-0.09229 0.46147-0.09229 0.27688 0 0.46146 0.21535 0.21535 0.21535 0.21535 0.55376 0 0.4307-0.49223 0.73835-0.49223 0.27688-1.169 0.27688-0.27688 0-0.83064-0.03077-0.55376-0.06153-1.1383-0.33841-0.58452-0.30764-0.98446-1.046-0.36917-0.73835-0.36917-2.1227v-15.536q0-0.36917 0.24612-0.64605 0.27688-0.27688 0.67682-0.27688z"/>
   <path d="m33.329 33.862q-2.3689 0-4.184-1.0152t-2.8303-2.8303-1.0152-4.2455q0-2.615 1.0152-4.4608 1.046-1.8459 2.6765-2.8303 1.6613-1.0152 3.5071-1.0152 1.3536 0 2.615 0.49223 1.2921 0.46147 2.2766 1.4152 0.98446 0.92293 1.5998 2.2766 0.61529 1.3536 0.64605 3.138 0 0.36917-0.27688 0.64605-0.27688 0.24612-0.64605 0.24612h-12.337l-0.36918-1.6613h12.121l-0.39994 0.36917v-0.61529q-0.15382-1.4459-0.9537-2.4612-0.79988-1.0152-1.9382-1.5382-1.1075-0.523-2.3381-0.523-0.92293 0-1.9074 0.36917-0.9537 0.36917-1.7536 1.169-0.76911 0.76911-1.2613 1.9997-0.49223 1.1998-0.49223 2.8611 0 1.8151 0.73835 3.2918t2.1227 2.3381q1.3844 0.86141 3.3533 0.86141 1.046 0 1.9074-0.30764t1.5075-0.79988q0.67682-0.52299 1.1075-1.0768 0.33841-0.27688 0.64605-0.27688 0.33841 0 0.55376 0.24612 0.24612 0.24612 0.24612 0.55376 0 0.36917-0.30764 0.64605-0.92293 1.1075-2.3996 1.9382-1.4767 0.79988-3.2303 0.79988z"/>
   <path d="m44.394 33.862q-0.4307 0-0.67682-0.27688t-0.24612-0.64605v-13.782q0-0.36917 0.24612-0.64605 0.27688-0.27688 0.67682-0.27688t0.64605 0.27688q0.27688 0.27688 0.27688 0.64605v4.6147l-0.46147 0.09229q0.0923-1.0768 0.52299-2.1227 0.46147-1.0768 1.2306-1.9689 0.76911-0.89217 1.8151-1.4459 1.0768-0.55376 2.3996-0.55376 0.55376 0 1.0768 0.24612 0.523 0.21535 0.523 0.73835 0 0.46147-0.24612 0.70758-0.24612 0.24612-0.58452 0.24612-0.27688 0-0.61529-0.15382-0.30765-0.15382-0.83064-0.15382-0.8614 0-1.7228 0.523-0.8614 0.49223-1.569 1.3536-0.70758 0.8614-1.1383 1.9382-0.39994 1.046-0.39994 2.1227v7.5988q0 0.36917-0.27688 0.64605t-0.64605 0.27688z"/>
  </g>
 </g>
 <g transform="translate(-7.9959 11.323)" fill-rule="evenodd">
  <path d="m7.9959-11.322 10.054-1.31e-4 6.1e-5 10.054m0 6e-5 -10.054-10.054" fill="#586592"/>
  <path d="m15.356-3.9622-7.3603 12.748v-20.108z" fill="#313851"/>
  <path d="m18.05-1.2682h-4.2495l1.5554-2.694 2.694 2.694" fill="#f99947"/>
 </g>
</svg>
